<?xml version="1.0" encoding="UTF-8"?>
<!DOCTYPE svg PUBLIC "-//W3C//DTD SVG 1.1//EN" "http://www.w3.org/Graphics/SVG/1.1/DTD/svg11.dtd">
<!-- Company: MK ELEKTRO -->
<svg xmlns="http://www.w3.org/2000/svg" xml:space="preserve" width="60px" height="45px" version="1.1"
	style="shape-rendering:geometricPrecision; text-rendering:geometricPrecision; image-rendering:optimizeQuality; fill-rule:evenodd; clip-rule:evenodd"
	viewBox="0 0 60 45" xmlns:xlink="http://www.w3.org/1999/xlink">
 <defs>
  <style type="text/css">
   <![CDATA[
    .fil0 {fill:#DE002B}
    .fil1 {fill:white}
   ]]>
  </style>
 </defs>
 <g id="layer_1">
  <path class="fil0" d="M30 44.88c-8.305,0 -16.828,-0.837 -24.904,-2.812 -2.712,-0.663 -4.317,-3.421 -4.537,-6.05 -0.377,-4.495 -0.559,-9.007 -0.559,-13.518 0,-4.511 0.182,-9.023 0.559,-13.519 0.22,-2.629 1.825,-5.387 4.537,-6.05 8.076,-1.974 16.599,-2.812 24.904,-2.812 8.305,0 16.828,0.838 24.904,2.812 2.712,0.663 4.317,3.421 4.537,6.05 0.377,4.496 0.559,9.008 0.559,13.519 0,4.511 -0.182,9.023 -0.559,13.518 -0.22,2.629 -1.825,5.387 -4.537,6.05 -8.076,1.975 -16.599,2.812 -24.904,2.812z"/>
  <path class="fil1" d="M30 43.044c-4.368,0 -8.61,-0.243 -12.651,-0.699 -4.162,-0.469 -8.106,-1.166 -11.748,-2.056l-0.022 -0.005c-0.008,-0.002 -2.854,-0.736 -3.166,-4.46 -0.178,-2.123 -0.315,-4.331 -0.41,-6.621 -0.094,-2.261 -0.141,-4.498 -0.141,-6.703 0,-2.205 0.047,-4.442 0.141,-6.703 0.095,-2.29 0.232,-4.499 0.41,-6.622 0.312,-3.724 3.158,-4.458 3.166,-4.46l0.022 -0.004c3.642,-0.891 7.586,-1.588 11.748,-2.057 4.041,-0.455 8.283,-0.698 12.651,-0.698 4.368,0 8.61,0.243 12.651,0.698 4.162,0.469 8.106,1.166 11.748,2.057l0.022 0.004c0.008,0.002 2.854,0.736 3.166,4.46 0.178,2.123 0.315,4.332 0.41,6.622 0.094,2.261 0.141,4.498 0.141,6.703 0,2.205 -0.047,4.442 -0.141,6.703 -0.095,2.29 -0.232,4.498 -0.41,6.621 -0.312,3.724 -3.158,4.458 -3.166,4.46l-0.022 0.005c-3.642,0.89 -7.586,1.587 -11.748,2.056 -4.041,0.456 -8.283,0.699 -12.651,0.699zm0 -39.952c-8.817,0 -17.069,0.992 -24.133,2.72 0,0 -2.077,0.534 -2.322,3.456 -0.358,4.275 -0.547,8.699 -0.547,13.232 0,4.532 0.189,8.957 0.547,13.231 0.245,2.922 2.322,3.457 2.322,3.457 7.064,1.727 15.316,2.72 24.133,2.72 8.817,0 17.069,-0.993 24.133,-2.72 0,0 2.077,-0.535 2.322,-3.457 0.358,-4.274 0.547,-8.699 0.547,-13.231 0,-4.533 -0.189,-8.957 -0.547,-13.232 -0.245,-2.922 -2.322,-3.456 -2.322,-3.456 -7.064,-1.728 -15.316,-2.72 -24.133,-2.72z"/>
 </g>
</svg>
