<svg width="26" height="26" viewBox="0 0 26 26" fill="none" xmlns="http://www.w3.org/2000/svg">
<path fill-rule="evenodd" clip-rule="evenodd" d="M4 0C1.79086 0 0 1.79086 0 4V22C0 24.2091 1.79086 26 4 26H22C24.2091 26 26 24.2091 26 22V4C26 1.79086 24.2091 0 22 0H4ZM25.0389 5.77801C25.3051 6.0652 25.2881 6.51379 25.0009 6.77999L19.2623 12.099C18.8682 12.4644 18.8575 13.0844 19.2388 13.4631L25.0354 19.2198C25.3133 19.4957 25.3148 19.9446 25.0389 20.2225C24.763 20.5003 24.314 20.5019 24.0362 20.2259L18.1172 14.3477C17.7674 14.0004 17.2129 13.9858 16.8082 14.2672C15.5123 15.1684 14.1286 15.5679 12.724 15.5143C11.3499 15.4618 10.0073 14.9779 8.75268 14.1849C8.34727 13.9287 7.81162 13.9725 7.48317 14.322L1.96703 20.1914C1.69886 20.4767 1.25016 20.4906 0.964814 20.2225C0.679473 19.9543 0.665551 19.5056 0.933719 19.2202L6.36759 13.4384C6.7182 13.0653 6.70812 12.481 6.34486 12.1202L0.968284 6.78071C0.69044 6.50478 0.688886 6.05586 0.964814 5.77802C1.24074 5.50017 1.68966 5.49862 1.96751 5.77455L8.46289 12.2251C9.87975 13.3912 11.3566 14.043 12.7781 14.0973C14.1871 14.1511 15.6325 13.6222 17.0161 12.2481C17.0219 12.2424 17.0278 12.2367 17.0338 12.2312L24.0369 5.74C24.3241 5.47381 24.7727 5.49083 25.0389 5.77801Z" fill="#CC222E"/>
</svg>
