<svg width="27" height="26" viewBox="0 0 27 26" fill="none" xmlns="http://www.w3.org/2000/svg">
<path fill-rule="evenodd" clip-rule="evenodd" d="M0.613281 4C0.613281 1.79086 2.40414 0 4.61328 0H22.6133C24.8224 0 26.6133 1.79086 26.6133 4V22C26.6133 24.2091 24.8224 26 22.6133 26H4.61328C2.40414 26 0.613281 24.2091 0.613281 22V4ZM13.6135 16.7485C15.6836 16.7485 17.3618 15.0704 17.3618 13.0003C17.3618 10.9302 15.6836 9.25201 13.6135 9.25201C11.5434 9.25201 9.86528 10.9302 9.86528 13.0003C9.86528 15.0704 11.5434 16.7485 13.6135 16.7485ZM13.6135 18.5717C16.6905 18.5717 19.185 16.0773 19.185 13.0003C19.185 9.92325 16.6905 7.42883 13.6135 7.42883C10.5365 7.42883 8.0421 9.92325 8.0421 13.0003C8.0421 16.0773 10.5365 18.5717 13.6135 18.5717ZM20.4223 6.19061C21.1061 6.19061 21.6604 5.63629 21.6604 4.95251C21.6604 4.26874 21.1061 3.71442 20.4223 3.71442C19.7386 3.71442 19.1842 4.26874 19.1842 4.95251C19.1842 5.63629 19.7386 6.19061 20.4223 6.19061Z" fill="#CC222E"/>
</svg>
