<svg width="27" height="26" viewBox="0 0 27 26" fill="none" xmlns="http://www.w3.org/2000/svg">
<path fill-rule="evenodd" clip-rule="evenodd" d="M4.61328 0C2.40414 0 0.613281 1.79086 0.613281 4V22C0.613281 24.2091 2.40414 26 4.61328 26H22.6133C24.8224 26 26.6133 24.2091 26.6133 22V4C26.6133 1.79086 24.8224 0 22.6133 0H4.61328ZM20.9932 8.5143C21.1088 7.25891 19.7212 7.77583 19.7212 7.77583C18.6966 8.18102 17.64 8.59279 16.5719 9.00902C13.2602 10.2996 9.83886 11.6329 6.92434 12.9451C5.344 13.4989 6.26908 14.0528 6.26908 14.0528L8.7745 14.7913C9.93082 15.1236 10.5475 14.7543 10.5475 14.7543L15.9438 11.2466C17.871 9.99124 17.4085 11.0251 16.946 11.4682L12.8988 15.1605C12.282 15.6774 12.5904 16.1205 12.8602 16.342C13.6249 16.9866 15.506 18.1659 16.3272 18.6808C16.5409 18.8148 16.6828 18.9038 16.7147 18.9266C16.9074 19.0743 17.9481 19.7389 18.6419 19.5913C19.3358 19.4436 19.4128 18.5943 19.4128 18.5943L20.3379 12.7974C20.4767 11.791 20.6358 10.8237 20.7629 10.0511C20.883 9.32138 20.9744 8.7654 20.9932 8.5143Z" fill="#CC222E"/>
</svg>
