<svg width="27" height="26" viewBox="0 0 27 26" fill="none" xmlns="http://www.w3.org/2000/svg">
<path fill-rule="evenodd" clip-rule="evenodd" d="M4.61328 0C2.40414 0 0.613281 1.79086 0.613281 4V22C0.613281 24.2091 2.40414 26 4.61328 26H22.6133C24.8224 26 26.6133 24.2091 26.6133 22V4C26.6133 1.79086 24.8224 0 22.6133 0H4.61328ZM4.86302 9.29581C5.50275 12.4818 8.13004 18.3981 13.8598 17.9286C13.9221 17.9234 13.9743 17.8761 13.9846 17.8144L14.2993 15.9262C14.3104 15.8597 14.3679 15.8109 14.4354 15.8109H15.3154C15.352 15.8109 15.3871 15.8255 15.413 15.8513L17.4403 17.8786C17.4661 17.9045 17.5012 17.919 17.5378 17.919H21.4057C21.5221 17.919 21.5862 17.7838 21.5125 17.6937L18.5982 14.1318C18.5604 14.0855 18.5566 14.0201 18.589 13.9698L21.5602 9.34784C21.6193 9.25601 21.5533 9.13525 21.4442 9.13525H17.2462C17.1788 9.13525 17.1214 9.18352 17.1093 9.24986C16.8548 10.6468 16.0102 13.2012 14.4565 13.3451C14.3807 13.3521 14.3185 13.2897 14.3185 13.2135V9.27322C14.3185 9.19702 14.2567 9.13525 14.1805 9.13525H10.558C10.4215 9.13525 10.3606 9.32289 10.4627 9.41356C10.7512 9.66992 11.0016 9.99266 10.805 10.1893C10.5433 10.451 10.6674 12.1548 10.7803 13.1446C10.7915 13.2429 10.7001 13.3202 10.609 13.2819C9.78587 12.9356 8.55013 11.7677 8.01718 9.24704C8.00357 9.18269 7.94685 9.13525 7.88108 9.13525H4.99789C4.91163 9.13525 4.84604 9.21124 4.86302 9.29581Z" fill="#CC222E"/>
</svg>
