<svg width="23" height="21" viewBox="0 0 23 21"  xmlns="http://www.w3.org/2000/svg">
    <path fill-rule="evenodd" clip-rule="evenodd"
      d="M3.91299 3.10869L0.780596 2.15859C0.200337 1.98259 -0.128051 1.36729 0.0471219 0.784288C0.222295 0.201285 0.834692 -0.128656 1.41495 0.0473447L5.8757 1.40035L7.71315 13.6029H18.0253C18.103 13.6029 18.1722 13.5536 18.1979 13.48L18.6839 12.0883C18.7252 11.9703 18.6395 11.8463 18.515 11.8437L11.2281 11.6953C10.6221 11.683 10.1408 11.1794 10.1531 10.5705C10.1654 9.96167 10.6666 9.47809 11.2726 9.49043L19.4 9.65595C19.479 9.65756 19.5501 9.60799 19.5763 9.53306L20.0431 8.1963C20.0849 8.07679 19.9966 7.95168 19.8705 7.95168H11.7536C11.1475 7.95168 10.6561 7.45799 10.6561 6.849C10.6561 6.24001 11.1475 5.74633 11.7536 5.74633H22.4508C22.829 5.74633 23.0938 6.12167 22.9686 6.48021L19.9042 15.255C19.7885 15.5864 19.477 15.8082 19.1275 15.8082H6.53323C6.12619 15.8082 5.78027 15.5093 5.71938 15.1049L3.91299 3.10869Z"
       />
    <path
      d="M10.5647 19.1622C10.5647 20.1772 9.74575 21 8.73555 21C7.72534 21 6.9064 20.1772 6.9064 19.1622C6.9064 18.1472 7.72534 17.3244 8.73555 17.3244C9.74575 17.3244 10.5647 18.1472 10.5647 19.1622Z"
       />
    <path
      d="M18.6129 19.1622C18.6129 20.1772 17.794 21 16.7838 21C15.7736 21 14.9546 20.1772 14.9546 19.1622C14.9546 18.1472 15.7736 17.3244 16.7838 17.3244C17.794 17.3244 18.6129 18.1472 18.6129 19.1622Z"
      />
  </svg>