<svg width="15" height="20" viewBox="0 0 15 20" fill="none" xmlns="http://www.w3.org/2000/svg">
<path fill-rule="evenodd" clip-rule="evenodd" d="M7.19121 19.8987C7.19143 19.8988 7.19159 19.8989 7.5 19.4447L7.19121 19.8987ZM7.80879 19.8987L7.81071 19.8973L7.81559 19.8937L7.83262 19.881C7.84725 19.8702 7.8683 19.8544 7.8953 19.8338C7.9493 19.7927 8.02725 19.7324 8.12577 19.6539C8.3227 19.4968 8.60202 19.2666 8.9363 18.9702C9.60413 18.378 10.4951 17.5185 11.3874 16.4479C13.1592 14.3224 15 11.2888 15 7.8206C15 5.74752 14.2106 3.75866 12.8044 2.29175C11.3981 0.824755 9.49012 0 7.5 0C5.50987 0 3.60187 0.824755 2.19557 2.29175C0.789429 3.75866 0 5.74752 0 7.8206C0 11.2888 1.84077 14.3224 3.61259 16.4479C4.50493 17.5185 5.39587 18.378 6.0637 18.9702C6.39798 19.2666 6.6773 19.4968 6.87423 19.6539C6.97275 19.7324 7.0507 19.7927 7.1047 19.8338C7.1317 19.8544 7.15275 19.8702 7.16738 19.881L7.18441 19.8937L7.18929 19.8973L7.19121 19.8987C7.3762 20.0338 7.6238 20.0338 7.80879 19.8987ZM7.5 19.4447L7.80879 19.8987C7.80857 19.8988 7.80841 19.8989 7.5 19.4447ZM10.1786 7.77788C10.1786 9.31201 8.97932 10.5557 7.5 10.5557C6.02068 10.5557 4.82143 9.31201 4.82143 7.77788C4.82143 6.24375 6.02068 5.00007 7.5 5.00007C8.97932 5.00007 10.1786 6.24375 10.1786 7.77788Z" fill="#DE002B"/>
</svg>
