<svg width="24" height="24" viewBox="0 0 24 24"  xmlns="http://www.w3.org/2000/svg">
<path fill-rule="evenodd" clip-rule="evenodd" d="M10.0312 0.0126667C10.4451 -0.0505081 10.6091 0.122629 10.5233 0.532078C8.88104 2.0561 7.57637 3.82682 6.60929 5.84424C5.12776 5.92186 3.64339 5.93764 2.15616 5.89146C1.87669 5.77789 1.80638 5.58118 1.94522 5.30122C3.91734 2.42688 6.61266 0.664036 10.0312 0.0126667Z" />
<path fill-rule="evenodd" clip-rule="evenodd" d="M13.6406 0.0126579C17.2162 0.549516 20.0209 2.31236 22.0547 5.30121C22.2025 5.58679 22.1322 5.7835 21.8438 5.89145C20.3565 5.93763 18.8722 5.92186 17.3906 5.84423C16.4236 3.82681 15.1189 2.05609 13.4766 0.532069C13.4139 0.313541 13.4686 0.140404 13.6406 0.0126579Z" />
<path fill-rule="evenodd" clip-rule="evenodd" d="M11.2032 0.957031C11.3684 0.949754 11.5012 1.01271 11.6016 1.14591C11.6329 2.67266 11.6329 4.19942 11.6016 5.72617C11.5398 5.81999 11.4538 5.8751 11.3438 5.89144C10.169 5.93728 8.99708 5.92156 7.82816 5.84422C7.6611 5.70284 7.622 5.53757 7.71097 5.34841C8.60586 3.6678 9.76991 2.20401 11.2032 0.957031Z" />
<path fill-rule="evenodd" clip-rule="evenodd" d="M12.6094 0.957038C12.7465 0.95514 12.8715 0.994492 12.9844 1.07509C14.4066 2.3539 15.5316 3.84918 16.3594 5.56091C16.3311 5.67745 16.2686 5.77188 16.1719 5.84422C15.003 5.92157 13.8311 5.93729 12.6563 5.89144C12.5706 5.87855 12.5003 5.83917 12.4454 5.77339C12.3679 4.25068 12.3523 2.72392 12.3985 1.19313C12.4465 1.08987 12.5169 1.01117 12.6094 0.957038Z" />
<path fill-rule="evenodd" clip-rule="evenodd" d="M0 11.4397C0 11.2036 0 10.9675 0 10.7314C0.142049 9.52979 0.446736 8.36503 0.914062 7.2372C0.998484 7.04318 1.10004 6.86219 1.21875 6.69418C2.77841 6.61651 4.34091 6.60074 5.90625 6.64696C6.09431 6.68705 6.18806 6.8051 6.1875 7.00111C5.73047 8.42953 5.45705 9.89333 5.36719 11.3925C5.33039 11.4768 5.27573 11.5477 5.20312 11.605C3.53125 11.6365 1.85938 11.6365 0.1875 11.605C0.10077 11.5724 0.0382704 11.5173 0 11.4397Z" />
<path fill-rule="evenodd" clip-rule="evenodd" d="M7.31249 6.62335C8.65635 6.61546 10.0001 6.62335 11.3437 6.64696C11.4538 6.6633 11.5397 6.7184 11.6016 6.81223C11.6328 8.35474 11.6328 9.8972 11.6016 11.4397C11.5625 11.5105 11.5078 11.5656 11.4375 11.605C9.73438 11.6365 8.03123 11.6365 6.32812 11.605C6.28518 11.5873 6.24609 11.5637 6.21093 11.5341C6.16931 9.88615 6.46617 8.29642 7.10156 6.76501C7.1676 6.70452 7.23792 6.6573 7.31249 6.62335Z" />
<path fill-rule="evenodd" clip-rule="evenodd" d="M12.6563 6.62333C14.0499 6.60086 15.4405 6.62447 16.8281 6.69416C16.9147 6.78973 16.9771 6.8999 17.0156 7.0247C17.5656 8.48353 17.8234 9.98671 17.7891 11.5341C17.7539 11.5637 17.7148 11.5873 17.6719 11.605C15.9688 11.6365 14.2656 11.6365 12.5625 11.605C12.5078 11.5499 12.4532 11.4948 12.3984 11.4397C12.3672 9.89718 12.3672 8.35472 12.3984 6.81221C12.4688 6.71924 12.5547 6.65629 12.6563 6.62333Z" />
<path fill-rule="evenodd" clip-rule="evenodd" d="M24 10.6842C24 10.9518 24 11.2193 24 11.4869C23.9445 11.5343 23.8821 11.5737 23.8125 11.605C22.1406 11.6365 20.4688 11.6365 18.7969 11.605C18.7243 11.5477 18.6696 11.4768 18.6328 11.3925C18.5512 9.89182 18.2778 8.42802 17.8125 7.00111C17.8119 6.8051 17.9057 6.68705 18.0938 6.64696C19.6591 6.60074 21.2216 6.61651 22.7813 6.69418C23.1112 7.28121 23.369 7.90295 23.5547 8.55934C23.7493 9.26432 23.8977 9.97261 24 10.6842Z" />
<path fill-rule="evenodd" clip-rule="evenodd" d="M0 13.3285C0 13.0609 0 12.7933 0 12.5258C0.0554415 12.4783 0.117941 12.439 0.1875 12.4077C1.85938 12.3762 3.53125 12.3762 5.20312 12.4077C5.27573 12.465 5.33039 12.5359 5.36719 12.6202C5.45705 14.1194 5.73047 15.5831 6.1875 17.0116C6.18806 17.2076 6.09431 17.3256 5.90625 17.3657C4.34091 17.4119 2.77841 17.3962 1.21875 17.3185C0.888778 16.7315 0.630966 16.1097 0.445312 15.4533C0.250724 14.7484 0.102287 14.0401 0 13.3285Z" />
<path fill-rule="evenodd" clip-rule="evenodd" d="M6.32812 12.3841C8.03133 12.3762 9.73444 12.3841 11.4375 12.4077C11.4922 12.4628 11.5469 12.5179 11.6016 12.573C11.6328 14.1155 11.6328 15.6579 11.6016 17.2004C11.5397 17.2943 11.4538 17.3494 11.3437 17.3657C9.95025 17.4118 8.55961 17.3961 7.17187 17.3185C7.09964 17.2439 7.04494 17.1573 7.00781 17.0588C6.46889 15.6113 6.18764 14.116 6.16406 12.573C6.19641 12.4856 6.25106 12.4226 6.32812 12.3841Z" />
<path fill-rule="evenodd" clip-rule="evenodd" d="M12.5625 12.3841C14.2657 12.3762 15.9688 12.3841 17.6719 12.4077C17.8322 12.5094 17.8947 12.6589 17.8594 12.8563C17.7773 14.3006 17.4882 15.7015 16.9922 17.0588C16.9551 17.1573 16.9004 17.2439 16.8281 17.3185C15.4404 17.3961 14.0498 17.4118 12.6563 17.3657C12.5462 17.3494 12.4603 17.2943 12.3984 17.2004C12.3672 15.6579 12.3672 14.1155 12.3984 12.573C12.4501 12.5045 12.5048 12.4416 12.5625 12.3841Z" />
<path fill-rule="evenodd" clip-rule="evenodd" d="M24 12.573C24 12.8091 24 13.0452 24 13.2813C23.858 14.4829 23.5533 15.6476 23.0859 16.7755C23.0015 16.9695 22.8999 17.1505 22.7813 17.3185C21.2216 17.3962 19.6591 17.4119 18.0938 17.3657C17.9057 17.3256 17.8119 17.2076 17.8125 17.0116C18.2695 15.5831 18.543 14.1194 18.6328 12.6202C18.6696 12.5359 18.7243 12.465 18.7969 12.4077C20.4688 12.3762 22.1406 12.3762 23.8125 12.4077C23.8992 12.4403 23.9618 12.4953 24 12.573Z" />
<path fill-rule="evenodd" clip-rule="evenodd" d="M2.15619 18.0976C3.6435 18.075 5.12788 18.0986 6.60931 18.1684C7.57639 20.1859 8.88106 21.9566 10.5234 23.4806C10.6123 23.7904 10.503 23.9636 10.1953 24C7.00086 23.4621 4.40713 21.9197 2.414 19.3725C2.22987 19.1114 2.05799 18.8439 1.89838 18.5698C1.85154 18.3333 1.93748 18.1759 2.15619 18.0976Z" />
<path fill-rule="evenodd" clip-rule="evenodd" d="M7.96875 18.0976C9.09384 18.0897 10.2188 18.0976 11.3437 18.1212C11.4295 18.1341 11.4998 18.1735 11.5547 18.2393C11.6321 19.762 11.6477 21.2887 11.6016 22.8195C11.4487 23.0648 11.2534 23.1042 11.0156 22.9376C9.59348 21.6587 8.46848 20.1635 7.64062 18.4518C7.69622 18.2779 7.80558 18.1598 7.96875 18.0976Z" />
<path fill-rule="evenodd" clip-rule="evenodd" d="M12.6563 18.0976C13.7814 18.0897 14.9064 18.0976 16.0313 18.1212C16.2032 18.1684 16.3125 18.2786 16.3594 18.4518C15.5315 20.1635 14.4065 21.6587 12.9844 22.9376C12.7689 23.0963 12.5736 23.0727 12.3984 22.8668C12.3672 21.3557 12.3672 19.8447 12.3984 18.3337C12.4503 18.2103 12.5363 18.1316 12.6563 18.0976Z" />
<path fill-rule="evenodd" clip-rule="evenodd" d="M17.5313 18.0976C18.9688 18.0897 20.4063 18.0976 21.8438 18.1212C22.1226 18.2361 22.1929 18.4329 22.0547 18.7115C20.0898 21.585 17.3945 23.34 13.9688 23.9764C13.5521 24.0604 13.3881 23.8951 13.4766 23.4806C15.0873 22.0005 16.353 20.2691 17.2734 18.2865C17.3438 18.1935 17.4297 18.1306 17.5313 18.0976Z" />
</svg>
