<svg width="19" height="19" viewBox="0 0 19 19" fill="none" xmlns="http://www.w3.org/2000/svg">
<path d="M5.09225 13.891C0.897459 9.70399 -1.77501 4.36427 1.38799 1.19445C1.57404 1.00793 1.77705 0.82147 1.9631 0.635015C2.9272 -0.280338 3.85752 -0.229493 4.6863 0.940157L6.8852 4.07612C7.6294 5.16101 7.44335 5.77129 6.64841 6.61887L5.95487 7.38169C5.7012 7.61892 5.80267 7.94106 5.9211 8.14444C6.24247 8.75472 7.15583 9.8396 8.13682 10.8228C9.15172 11.8398 10.1835 12.7044 10.8262 13.0603C11.0631 13.1959 11.4014 13.2299 11.6212 13.0264L12.3486 12.3314C13.1605 11.5347 13.8201 11.3313 14.8688 12.0771C16.3235 13.1112 17.203 13.7215 18.0657 14.3148C19.1312 15.0945 19.385 16.0608 18.3025 17.0439C18.1164 17.2303 17.9472 17.4338 17.7612 17.6202C14.5982 20.7732 9.28703 18.0948 5.09225 13.891Z" fill="#CC222E"/>
</svg>
