<svg width="21" height="17" viewBox="0 0 21 17" fill="none" xmlns="http://www.w3.org/2000/svg">
<path d="M19.2097 0.150081C19.2097 0.150081 21.1523 -0.585776 20.9904 1.20131C20.9365 1.93717 20.4508 4.51267 20.0731 7.29843L18.778 15.5506C18.778 15.5506 18.6701 16.7595 17.6987 16.9697C16.7274 17.1799 15.2704 16.2339 15.0006 16.0236C14.7847 15.8659 10.9534 13.5007 9.60431 12.3443C9.22655 12.0289 8.79486 11.3982 9.65826 10.6623L15.3244 5.40624C15.9719 4.77549 16.6195 3.30378 13.9213 5.09086L6.36655 10.0842C6.36655 10.0842 5.50315 10.6098 3.8843 10.1368L0.376711 9.08552C0.376711 9.08552 -0.918395 8.29711 1.29408 7.50865C6.69035 5.03826 13.3278 2.51532 19.2097 0.150081Z" fill="#CC222E"/>
</svg>
