<svg width="27" height="14" viewBox="0 0 27 14" fill="none" xmlns="http://www.w3.org/2000/svg">
<path d="M14.0936 13.1136C5.1459 13.8222 1.04478 4.98899 0.0476606 0.236157C0.0216357 0.112107 0.117704 0 0.244454 0H4.76885C4.86431 0 4.94685 0.0684171 4.96743 0.161627C5.80232 3.94338 7.74633 5.68508 9.03077 6.192C9.16477 6.24489 9.29687 6.13087 9.27977 5.98784C9.10341 4.51291 8.90825 1.96312 9.31729 1.57204C9.62538 1.27748 9.2299 0.793183 8.77734 0.410032C8.62343 0.279728 8.711 0 8.91267 0H14.5964C14.7078 0 14.7981 0.0902813 14.7981 0.201649V6.0865C14.7981 6.19787 14.889 6.28903 15 6.27982C17.434 6.07789 18.7558 2.25208 19.1524 0.165897C19.1707 0.069614 19.2542 0 19.3522 0H25.9291C26.0905 0 26.1865 0.180211 26.0964 0.314164L21.4605 7.20899C21.4099 7.28416 21.4157 7.3838 21.4746 7.45262L26.0229 12.7676C26.1348 12.8984 26.0419 13.1003 25.8697 13.1003H19.8116C19.7597 13.1003 19.7098 13.0803 19.6723 13.0444L16.5007 10.0121C16.4632 9.97626 16.4133 9.95624 16.3614 9.95624H14.9676C14.8696 9.95624 14.7858 10.0267 14.7689 10.1233L14.2765 12.9481C14.2608 13.0379 14.1844 13.1064 14.0936 13.1136Z" fill="#CC222E"/>
</svg>
