<svg width="26" height="19" viewBox="0 0 26 19" fill="none" xmlns="http://www.w3.org/2000/svg">
<path d="M24.9866 1.63101C24.0481 0.472548 22.3153 0 19.0061 0H6.99366C3.60872 0 1.84659 0.50303 0.911594 1.73639C0 2.93893 0 4.71077 0 7.16304V11.8371C0 16.5879 1.0816 19 6.99366 19H19.0062C21.8759 19 23.4661 18.583 24.4949 17.5607C25.5499 16.5123 26 14.8005 26 11.8371V7.16304C26 4.57691 25.9295 2.79462 24.9866 1.63101ZM16.6921 10.1453L11.2373 13.1056C11.1153 13.1718 10.982 13.2046 10.8488 13.2046C10.698 13.2046 10.5475 13.1625 10.4143 13.0787C10.1633 12.9208 10.0101 12.6384 10.0101 12.3337V6.43218C10.0101 6.12806 10.1629 5.84589 10.4133 5.68791C10.6639 5.52993 10.9754 5.51913 11.2354 5.65935L16.6902 8.60054C16.9677 8.75016 17.142 9.04766 17.1424 9.37224C17.1427 9.69708 16.9692 9.99502 16.6921 10.1453Z" fill="#CC222E"/>
</svg>
